<?xml version="1.0" encoding="UTF-8" standalone="no"?>
<svg
   xmlns:dc="http://purl.org/dc/elements/1.1/"
   xmlns:cc="http://creativecommons.org/ns#"
   xmlns:rdf="http://www.w3.org/1999/02/22-rdf-syntax-ns#"
   xmlns:svg="http://www.w3.org/2000/svg"
   xmlns="http://www.w3.org/2000/svg"
   xmlns:sodipodi="http://sodipodi.sourceforge.net/DTD/sodipodi-0.dtd"
   xmlns:inkscape="http://www.inkscape.org/namespaces/inkscape"
   width="32"
   height="32"
   viewBox="0 0 32 32"
   class="bi bi-kanban"
   version="1.1"
   id="svg6"
   sodipodi:docname="object_module.svg"
   inkscape:export-filename="/home/john/WWW/dolibarr/htdocs/custom/scrumboard/img/object_module.png"
   inkscape:export-xdpi="3072"
   inkscape:export-ydpi="3072"
   inkscape:version="0.92.5 (2060ec1f9f, 2020-04-08)"
   style="fill:currentColor">
  <metadata
     id="metadata12">
    <rdf:RDF>
      <cc:Work
         rdf:about="">
        <dc:format>image/svg+xml</dc:format>
        <dc:type
           rdf:resource="http://purl.org/dc/dcmitype/StillImage" />
        <dc:title></dc:title>
      </cc:Work>
    </rdf:RDF>
  </metadata>
  <defs
     id="defs10" />
  <sodipodi:namedview
     pagecolor="#505050"
     bordercolor="#ffffff"
     borderopacity="1"
     objecttolerance="10"
     gridtolerance="10"
     guidetolerance="10"
     inkscape:pageopacity="0"
     inkscape:pageshadow="2"
     inkscape:window-width="1920"
     inkscape:window-height="1011"
     id="namedview8"
     showgrid="false"
     inkscape:zoom="22.627417"
     inkscape:cx="27.060199"
     inkscape:cy="21.123384"
     inkscape:window-x="1920"
     inkscape:window-y="0"
     inkscape:window-maximized="1"
     inkscape:current-layer="svg6" />
  <path
     d="m 26.846943,2.0145439 a 1.9980319,1.9980319 0 0 1 1.998032,1.998032 V 27.988959 a 1.9980319,1.9980319 0 0 1 -1.998032,1.998032 H 4.8685925 A 1.9980319,1.9980319 0 0 1 2.8705605,27.988959 V 4.0125759 a 1.9980319,1.9980319 0 0 1 1.998032,-1.998032 z M 4.8685925,0.01651189 A 3.9960639,3.9960639 0 0 0 0.87252857,4.0125759 V 27.988959 A 3.9960639,3.9960639 0 0 0 4.8685925,31.985023 H 26.846943 a 3.9960639,3.9960639 0 0 0 3.996064,-3.996064 V 4.0125759 A 3.9960639,3.9960639 0 0 0 26.846943,0.01651189 Z"
     id="path2"
     style="fill:#00384e;fill-opacity:1;stroke-width:1.99803185"
     inkscape:connector-curvature="0" />
  <path
     d="m 12.872704,5.9590283 a 1.9980319,1.9980319 0 0 1 1.998033,-1.998032 h 1.998032 a 1.9980319,1.9980319 0 0 1 1.998032,1.998032 v 5.9940947 a 1.9980319,1.9980319 0 0 1 -1.998032,1.998033 h -1.998032 a 1.9980319,1.9980319 0 0 1 -1.998033,-1.998033 z m -7.9921266,0 a 1.9980319,1.9980319 0 0 1 1.998032,-1.998032 h 1.998032 a 1.9980319,1.9980319 0 0 1 1.9980306,1.998032 V 19.945251 a 1.9980319,1.9980319 0 0 1 -1.9980306,1.998032 h -1.998032 a 1.9980319,1.9980319 0 0 1 -1.998032,-1.998032 z m 15.9842546,0 a 1.9980319,1.9980319 0 0 1 1.998032,-1.998032 h 1.998032 a 1.9980319,1.9980319 0 0 1 1.998032,1.998032 V 25.939347 a 1.9980319,1.9980319 0 0 1 -1.998032,1.998032 h -1.998032 a 1.9980319,1.9980319 0 0 1 -1.998032,-1.998032 z"
     id="path4"
     style="fill:#cb4f24;fill-opacity:1;stroke-width:1.99803185"
     inkscape:connector-curvature="0" />
</svg>
